<?xml version="1.0" encoding="UTF-8"?>
<svg id="Camada_2" xmlns="http://www.w3.org/2000/svg" xmlns:xlink="http://www.w3.org/1999/xlink" viewBox="0 0 1153.78 1851.63">
  <defs>
    <style>
      .cls-1 {
        stroke: #fff;
      }

      .cls-1, .cls-2 {
        fill: #fff;
      }

      .cls-1, .cls-3 {
        stroke-linecap: round;
        stroke-linejoin: round;
        stroke-width: 8.39px;
      }

      .cls-3 {
        stroke: #3c2415;
      }

      .cls-3, .cls-4 {
        fill: #3c2415;
      }

      .cls-5 {
        fill: #ed1c24;
      }

      .cls-6 {
        fill: none;
      }

      .cls-7 {
        fill: #4c2a03;
      }

      .cls-8 {
        filter: url(#outer-glow-1);
      }

      .cls-9 {
        fill: #754c29;
      }

      .cls-10 {
        fill: #603913;
      }

      .cls-11 {
        fill: #f9b093;
      }

      .cls-12 {
        clip-path: url(#clippath);
      }
    </style>
    <clipPath id="clippath">
      <rect class="cls-6" width="1153.78" height="1851.63"/>
    </clipPath>
    <filter id="outer-glow-1" filterUnits="userSpaceOnUse">
      <feOffset dx="0" dy="0"/>
      <feGaussianBlur result="blur" stdDeviation="6.99"/>
      <feFlood flood-color="#3c1212" flood-opacity=".2"/>
      <feComposite in2="blur" operator="in"/>
      <feComposite in="SourceGraphic"/>
    </filter>
  </defs>
  <g id="Layer_1">
    <g class="cls-12">
      <g class="cls-8">
        <path class="cls-11" d="M222.83,411.47c-4.96-9.86-24.05-23.68-24.05-23.68l-15.94-20.34c-6.18-16-19.4-53.91-21.01-60.22-1.89-7.37-3.66-14.84-4.73-22.36-1.05-7.39-1.96-14.81-6.35-21.11-1.81-2.61-4.29-4.96-7.39-5.66-3.1-.7-6.82.78-7.82,3.79-.44,1.33-.33,2.77-.2,4.17,2.48,26.56,9.12,52.57,16.94,78.07,6.87,22.4,14.68,44.51,23.4,66.25,5.51,13.73,11.62,27.68,22.11,38.11,2.4,2.38,5.12,4.62,8.37,5.53,2.42.68,4.99.58,7.5.48,12.5-.51,25.01-1.02,37.51-1.53,2.51-.1,5.07-.21,7.45-1.01,2.71-.91,5.06-2.65,7.35-4.36,7.78-5.82,15.8-11.92,20.34-20.5,7.82-14.78,3.65-33.56,10.82-48.67,2.22-4.67,5.53-9.07,5.86-14.23s-4.54-10.99-9.32-9.02c-1.32.55-2.37,1.58-3.36,2.62-10.94,11.53-18.28,26.43-20.75,42.14-.58,3.68-1.07,7.75-3.82,10.27-4.51,4.13-11.98,1.34-16.3-2.99-8.66-8.7-11.06-21.6-14.04-33.51-4.52-18.03-11.28-35.47-15.22-53.65-.52-2.38-.7-5.45,1.42-6.65.84-.48,1.86-.5,2.83-.49,18.74.21,35.77,10.26,51.74,20.05,3.71,2.27,7.68,4.63,12.03,4.57,4.35-.06,8.94-3.64,8.36-7.95-.4-2.98-2.98-5.13-5.4-6.91-8.62-6.36-17.7-12.1-27.13-17.18-8.41-4.53-27.64-16.42-37.39-17.1-5.39-.37-5.79,2.72-11.08,1.64-3.28-.67-1.38,1.78-4.7,1.36-10.36-1.31-16.24,20.87-19.49,27.97-4.9,10.7-9.8,21.39-14.71,32.09l6.18,16"/>
        <path class="cls-1" d="M896.49,925.19c-1.32,5.56,55.55-11.06,66.31-56.42,21.53-90.77,1.13-209.55-20.92-301.78-20.96-87.66-123.56-65.03-190.78-52.55-10.67,1.98-21.11,5.26-31.92,6.81-17.13,2.46-28.97-4.11-42.93-10.35-25.28-11.3-64.13-5.18-92.51-9.65-31.33-4.93-64.77-13.03-96.88-5.12-8.66,2.13-14.11,8.46-17.71,14.87-18.63,33.11-12.76,71.86-15.03,106.91-2.63,40.48-6.41,80.94-7.6,121.44-.69,23.26-18.93-19.15-23.26-25.6-23.36-34.78-47.43-68.98-72.06-103.13-8.95-12.4-82.03-144.06-87.76-159.09-2.23,1.3-57.85,3.61-57.85,3.61,0,0-2.88-.44,4.65,18.51,9.1,22.91,2.75,7.09,13.01,30.23,5.84,13.15,13.28,26.61,18.51,39.9,10.86,27.57,18.77,55.91,28.88,83.68,15.99,43.95,34.87,87.43,62.32,127.33,22.44,32.63,48.57,63.02,76.08,92.84,14.95,16.21,41.37,37.42,69.07,25.61,11.97-5.11,22.14-13.46,27.99-23.51,40.44-69.51,48.58-121.15,66.53-185.11,20.25-72.15-16.16,106.96,3.38,236.2,3.44,22.72,8.55,39.12,10.49,62,.89,10.5,7.97,16.17,10.52,26.61,2.04,8.34,10.6,12.63,20.63,14,7.84,1.07,16.18.44,24.06-.54,33.27-4.15,66.1-8.65,99.66-10.59,33.47-1.94,67.97-4.01,101.41-3.3,3.36.07,6.56-1.3,9.76-2.01,3.91-.87,7.9-.84,11.75-2.28,8.35-3.12,15.25-10.11,19.5-18.14,5.67-10.73,9.22-21.79,11.37-33.64,3.95-21.76,6.59-44.98,7.33-67.19.74-22.28-.96-44.56-3.46-66.67-.1-.91-.24-1.93-.42-3.04-2.6-16.37-12.92-54.07-23.85-90.17-8.86-29.22-21.96-56.56-24.01-72.35-1.74-13.36,26.25,79.78,26.25,79.78"/>
        <path class="cls-9" d="M782.04,1113.74l-10.13,667.61c-.04,2.87,6.89,15.54-1.42,18.37l-7.9,1.86c-6.28,1.18,2.92,8.49,5,15.83l.89,10.92c6.02,10.1-2.46,17.74-4.92,23.52l-4.92,6.51-4.92,86.21c-1.02,17.9-23.13,33.62-50.95,36.23-29.81,2.8-55.1-10.32-56.5-29.34-2.65-35.89-10.94-83.49-24.68-82.76-20.14,1.07-52.59-3.54-42.28-25.98,5.5-11.96-1.02-21.44-2.66-34.07-2.57-19.77,10.75,9.82-29.86-156.64-2.57-10.54.08-16.27-1.23-32.43-18.26-223.93,50.55-483.06,53.34-507.68.16-1.45.17-2.72.05-4.15,0,0-1.94-109.82-1.94-110.17.12,7.08,24.79,5.79,30.18,5.82,16.26.09,32.11-2.66,48.2-4.61,20.86-2.53,41.71-5.07,62.57-7.6,1.9-.23,3.79-.46,5.69-.69,1.35-.15,2.7-.28,4.06-.36l87.82-5.76c12.43-1,31.01-2.67,36.56-4.44,7.22-2.3,4.66,16.31,3.89,29.26l50.74,253.96c7.19,39.79,10.22,91.67,10.31,92.18,13.23,75.14-12.52,229.83-91.28,352.09-4.89,10.27-9.71,20.41-14.6,30.68,0,0-10.33,45.78-21.57,58.08-2.24,2.45-9.65,5.25-11.49,7.91-2.45,3.54-2.7,27.2-5.38,30.64-36.98,47.43-34.44,30.21-34.44,30.21"/>
        <path class="cls-10" d="M855.85,1000.11c-26.3,2.22-199.48,12.55-197.85,12.98,0,0-57.02,2.27-60.41-3.73-3.4-6.01,2.59,46.94,2.59,46.94,0,0,14.35,2.36,49.47.56,35.12-1.8,168.56-10.15,188-11.59,19.44-1.44,45.36-5.85,45.36-5.85,0,0,.75-31.92-2.27-40.79-1.36-4.01-24.89,1.48-24.89,1.48Z"/>
        <path class="cls-7" d="M645.39,1017.52c-.61,37.02,10.22,48.67-.7,47.29-10.92-1.37-6.88-37.58-7.4-46.79-.52-9.21,8.11-.5,8.11-.5Z"/>
        <path class="cls-7" d="M853.3,1000.99c-.61,37.02,10.22,48.67-.7,47.29-10.92-1.37-6.88-37.58-7.4-46.79-.52-9.21,8.11-.5,8.11-.5Z"/>
        <path class="cls-3" d="M806.65,381.26c4.08,6.49,6.97,13.23,7.1,19.69-1.46.41-2.66-.06-4.09-.65-11.54-4.83-20.42-15.38-30.09-23.28-6.06-4.94-15.26-3.5-22.12-6.48-18.87-8.21,11.19-22.83,20.66-21.3,5.28.85,10.52,9.57,14.05,13.53,5.18,5.82,10.28,11.79,14.49,18.49Z"/>
        <path class="cls-11" d="M773.69,334.25c14.35,4.55,37.26,22.36,44.94,9.4,16.38-27.64-57.83-65.32-77.91-101.38-20.67-37.11,61.55-68.66-66.38-106.76-10.49-3.12-76.65-29.43-111.2-2.41-11.96,9.36-18.54,23.85-23.02,37.27-5.2,15.55-13.89,35.56-14.71,51.73-.57,11.42-1.72,25.42,5.47,34.71.36.47,14.37-1.12,21.95,2.64,6.11,3.03,11.01,5.01,15.54,7.98,1.74,1.14-3.8-2.71-5.64-3.76-2.09-1.18-4.27-2.2-6.54-3.07-4.53-1.74-9.35-2.84-14.25-3.26-5.26-.45-10.64-.16-15.79,1.05-4.24.99-8.27,1.96-11.14,5.29-2.9,3.37-2.79,7.16-3.2,11.18-1.02,10.12,1.95,19.94,9.93,27.07,7.52,6.72,17.7,12.45,27.64,15.57,10.68,3.36,22.02,4.46,32.96,6.93,8.03,1.81,7.6,5.68,11.32,12.06,3.99,6.86,7.85,13.78,11.58,20.76,22.16,41.48,36.95,85.88,53.51,129.5l4.43,8.53,44.57,20.55,17.33-12.48c-4.92-11.11-9.85-22.23-14.74-33.36-2.44-5.56-4.88-11.13-7.3-16.7-1.67-3.83-5.93-10.58-4.26-14.93,11.88,3.96,20.34,13.61,33.75,13.98,14.15.39,28.93-10.12,34.54-21.74,4.41-9.13,2.59-17.51,1.64-26.93-1.1-10.88-2.39-21.74-3.79-32.59-1.88-14.51-3.24-29.34-7.53-43.34.22.71,4.79,2,5.51,2.32,2.96,1.3,5.92,2.55,9.02,3.59.58.2,1.17.39,1.75.57Z"/>
        <path class="cls-4" d="M890.06,243.69c5.35,6.25-70.31,30.77-214.62,47.06-48.1,5.43-189.18,10.61-235.75,5.59-33.06-3.57-40.13-6.07-52.07-13.09-11.58-6.81.72-10.21,16.27-13.74,17.66-4.01,29.76-7.4,50.54-12.66,53.62-13.57,34.79-9.23,47.24-14.38,12.45-5.15-4.12-8.15,9.46-66.23,13.59-58.09-32.28-53.71,47.71-61.54,79.99-7.83,168.65-58.74,176.38-3.64,7.73,55.1,10.16,32.1,29.15,63.11,18.99,31.01,7.7,30.61,55.16,38.18,47.46,7.57,15.16,3.12,43.37,6.99,28.21,3.88,29.76,1.34,30.9,10.53,1.13,9.17-3.76,13.82-3.76,13.82Z"/>
        <path class="cls-3" d="M704.42,378.82c-4.71,6.12-8.26,12.59-9.03,19.01,1.42.53,2.66.16,4.13-.31,11.98-3.85,21.86-13.61,32.29-20.65,6.53-4.41,15.55-2.21,22.67-4.6,19.6-6.59-8.86-23.67-18.45-22.94-5.34.41-11.42,8.65-15.33,12.3-5.74,5.36-11.42,10.88-16.28,17.19Z"/>
        <path class="cls-5" d="M771.07,507.47c-7.59-4.5-15.85-7.84-24.48-7.3-5.79.36-21.7,7.56-21.7,7.56l-16.8,10.81-42.89-17.3s-15.48-7.47-34.97-5.66c-19.49,1.8-21.33,7.83-21.06,12.55.27,4.72-.54,16.01,1.1,19.45,1.65,3.45.17,2.95,5.63,9.71,9.77,12.08,22.11,20.96,35.73,29.98,6.5,4.31,37.56,10.93,47.09,9.07,19.2-3.75,40.12-.8,59.79-2.96,10.25-1.12,20.66-2.89,29.62-7.27,5.71-2.79,10.84-6.81,13.95-11.65,1.63-2.54,7.51-11.07,7.25-13.73-.84-8.87-10.15-13.66-17.62-18.83-5.97-4.13-12.95-9.87-20.63-14.43Z"/>
        <path class="cls-5" d="M672.56,557.18c6.73,78.59-9.97,110.31,15.31,129.91,25.28,19.6,47.67,40.88,52.05,50.64,4.38,9.76,17.45-31.78,17.46-54.9,0-23.12,18.67-47.77,3.19-78.29-15.48-30.52-20.76-41.64-37.4-67.73-16.64-26.09-50.6,20.38-50.6,20.38Z"/>
        <path class="cls-5" d="M673.49,556.36c22.85,69,13.22,102.77,41.83,112.77,28.61,10.01,54.76,22.42,61.04,29.9,6.28,7.48,10.34-34.05,5.55-54.95-4.8-20.9,8.2-48.88-13.16-71.75-21.36-22.87-28.8-31.31-50.37-49.83-21.57-18.51-44.88,33.85-44.88,33.85Z"/>
        <path class="cls-11" d="M184.14,326.2c1.88,1.36-15.01-9.61-7.25-26.61,1.44-3.16,2.97-8.45,28.18-21.36,1.28-.66,11.95-6.19,23.12-9.13,11.63-3.06,15.36-4.13,25.8-4.44,10.44-.31,5.62,10.53,3.67,11.81-9.37,6.14-12.63,2.99-22.97,8.05-10.32,5.05-11.7,5.25-19.85,10.56-2.57,1.68-11.6,5.06-14.29,15.92-2.95,11.95,3.87,32.14,3.87,32.14"/>
        <path class="cls-11" d="M177.57,356.36c-6.8-18.83-12.26-29.81-13.28-47.21-.58-9.92,2.06-17.03,11.41-28.96.89-1.13,8.12-10.76,16.84-18.52,9.08-8.08,11.96-10.75,21.1-16.04,9.14-5.29,9.22,5.76,8,7.73-5.85,9.47-10,8.51-17.14,17.58-7.13,9.05-8.27,9.88-13.36,18.1-1.31,2.11-7.33,11.26-6.63,22.75,1.11,18.2,4.3,34.87,4.3,34.87"/>
        <path class="cls-2" d="M179.11,354.1s14.15-8.24,30.42-11.22"/>
        <path class="cls-11" d="M173.35,358.61c14.05,2.49,28.68-1.68,39.19-11.37,2.13-1.96.56-6.22-2.47-5.97-9.41.78-18.74,2.32-27.88,4.67l1.86,6.75c7.56-2.1,15.33-2.8,23.14-2.14l-1.77-6.52c-6.81,4.99-14.89,8.37-23.05,9.39-1.27.16-2.34.57-3.02,1.73-.63,1.08-.63,2.45,0,3.53,7.96,13.58,16.63,26.74,25.99,39.41,2.74,3.7,5.53,7.36,8.38,10.99l4.24-5.49c-13.95-7.27-25.04-18.68-32.09-32.79-1.95-3.9-3.4-7.64-4.67-12.06l-6.39,2.7c11.62,15.83,23.28,31.74,36.94,45.9,3.85,3.99,7.85,7.82,12.02,11.46,1.31,1.14,3.17,1.4,4.59.27,1.3-1.03,1.87-3.03.9-4.51-9.14-13.92-18.27-27.84-27.41-41.76-4.59-6.99-9.18-13.99-13.77-20.98-1.96-2.99-4.11-6.05-5.26-9.43-1.03-3.03-1.27-6.16-.65-9.07.76-3.57,2.34-6.26,5.03-8.57.46-.39.23-.23.62-.49.36-.25.72-.49,1.09-.72s.75-.44,1.14-.64c.17-.08.33-.16.5-.25.55-.27-.38.14.19-.09.8-.33,1.64-.58,2.48-.77.16-.04,1.18-.23.72-.16.49-.07.99-.09,1.49-.11l-3.02-5.26c-3.64,5-6.89,10.27-9.73,15.77l6.39,2.7c2.29-5.88,4.57-11.76,6.86-17.64.62-1.6-.55-3.53-2.03-4.13-1.75-.7-3.27,0-4.37,1.43-2.68,3.48-4.71,7.44-6.05,11.63s-1.44,8.49-2.19,12.46c-.18.98-.41,1.96-.76,2.9-.1.26-.23.58-.42.93-.1.19-.7,1.08-.37.67-.28.35-.61.66-.93.97-.42.42.15-.03-.35.28-.38.24-.75.47-1.15.66.52-.25-.47.12-.69.19-.14.05-.68.09,0,.03-.15.01-.31.02-.46.02-.11,0-.76-.04-.3.02s-.15-.02-.14-.04c-.01.02-.77-.26-.04.05-.14-.06-.28-.15-.42-.22-.46-.26.31.32-.13-.07-.06-.05-.58-.59-.3-.25-1.03-1.28-1.26-2.95-1.71-4.79-1.14-4.72-2.28-9.44-3.42-14.16-.29-1.2-.58-2.4-.87-3.6-.05-.2-.46-1.5-.36-1.57.08-.06-.12.59-.13.61.02-.11.53-.36.1-.08.15-.09.29-.18.44-.27.41-.24.84-.45,1.26-.67,1.09-.55,2.19-1.08,3.3-1.56,3.97-1.73,8.19-2.96,12.44-3.79s8.65-1.09,12.7-2.74c4.4-1.79,8.43-5.15,9.73-9.89.75-2.71.17-5.27-.29-7.96-.07-.42-.14-.82-.15-1.25,0-.22,0-.44.02-.66-.02.36-.07.24.02-.05.06-.21.11-.42.17-.63-.15.46-.03.04.11-.18.24-.37-.09.07-.09.08.26-.24.29-.28.11-.13-.1.11-.23.16-.38.17,1.74-.73,2.99-2.31,2.44-4.3-.51-1.87-2.46-2.89-4.3-2.44-3.88.95-7.43,2.8-10.52,5.32-1.55,1.26-2.87,2.71-4.08,4.29-.82,1.07-1.26,2.07-1.09,3.46.13.99.39,1.9.87,2.79,1.73,3.16,5.63,4.89,9.14,4.67,4.13-.26,7.52-2.94,10.14-5.95,1.34-1.54,2.55-3.19,3.97-4.67s2.54-2.38,4.24-2.85c4.34-1.19,2.5-7.94-1.86-6.75-2.93.8-5.4,2.6-7.46,4.79-1.85,1.97-3.38,4.22-5.32,6.11-.95.93-1.45,1.36-2.7,1.97-.35.17-.55.21-1.18.36.68-.16.08,0-.13,0-.26,0-.51,0-.77-.02.75.03-.12-.03-.29-.07-.2-.05-.39-.12-.59-.17-.75-.21.36.3-.27-.13-.07-.05-.76-.49-.39-.21s-.29-.29-.3-.3c-.47-.41.11.24-.06-.07-.19-.35-.18-.49-.07-.05-.05-.21-.13-1.01-.07-.21l-.48,1.77c1.13-1.58,3.03-3.42,4.69-4.53,2.19-1.46,3.89-2.19,6.42-2.81l-1.86-6.75c-2.44,1.03-4.12,2.79-4.78,5.41s.03,5.07.44,7.68c.06.4.09.74.09,1.16,0,.04-.03.9,0,.48.04-.39-.06.33-.08.41-.26,1.14-.35,1.19-1.01,2.22-.03.05-.39.51-.1.16-.15.19-.32.37-.48.54-.33.36-.69.69-1.06,1.01-.04.03-.52.39-.16.13-.2.14-.4.28-.61.41-.41.26-.84.51-1.27.73-4.02,2.03-9.16,2.1-13.6,3-5.01,1.02-9.85,2.69-14.48,4.83-2.1.97-4.5,1.94-5.98,3.8-2.03,2.56-1.22,5.47-.53,8.36,1.26,5.2,2.51,10.4,3.77,15.6,1.09,4.53,2.53,9.84,7.71,11.13,4.52,1.12,9.11-1.41,11.67-5.05,3.15-4.46,2.72-10.35,3.72-15.25s3.12-9.5,6.31-13.64l-6.39-2.7c-2.29,5.88-4.57,11.76-6.86,17.64-.62,1.6.55,3.53,2.03,4.13s3.55.14,4.37-1.43c2.84-5.5,6.09-10.76,9.73-15.77,1.57-2.15-.54-5.36-3.02-5.26-7.45.28-14.5,4.66-17.94,11.31-3.88,7.49-3.14,16.04.75,23.34,1.95,3.66,4.39,7.07,6.67,10.53,2.45,3.74,4.91,7.48,7.36,11.22,4.82,7.34,9.64,14.68,14.46,22.02,5.5,8.38,11,16.76,16.5,25.14l5.49-4.24c-14.44-12.58-26.62-27.45-38.09-42.72-3.29-4.38-6.54-8.8-9.78-13.22-1.03-1.4-2.66-2.18-4.37-1.43-1.56.69-2.52,2.42-2.03,4.13,4.65,16.15,14.52,30.77,27.77,41.11,3.84,2.99,7.88,5.67,12.2,7.92,1.54.8,3.44.53,4.51-.9,1.12-1.51.83-3.18-.27-4.59-12.18-15.54-23.28-31.94-33.27-48.98l-3.02,5.26c9.59-1.2,18.76-4.61,26.58-10.34,2.83-2.07,1.82-6.22-1.77-6.52-8.39-.7-16.89.14-25,2.39-1.82.51-2.94,2.48-2.44,4.3s2.47,2.91,4.3,2.44c8.54-2.19,17.23-3.69,26.02-4.42l-2.47-5.97c-4.25,3.92-9.57,6.87-15.13,8.5-1.45.43-2.92.77-4.41,1.04-1.37.25-2.33.37-3.96.47s-3.15.11-4.73.03c-1.71-.09-2.66-.2-4.16-.47-1.86-.33-3.77.5-4.3,2.44-.46,1.69.57,3.97,2.44,4.3h0Z"/>
      </g>
    </g>
  </g>
</svg>