<?xml version="1.0" encoding="UTF-8"?>
<svg id="Camada_2" xmlns="http://www.w3.org/2000/svg" viewBox="0 0 1207.35 442.81">
  <defs>
    <style>
      .cls-1 {
        fill: #fff;
      }

      .cls-2 {
        fill: #f9a13f;
      }
    </style>
  </defs>
  <g id="Layer_1">
    <g>
      <g>
        <g>
          <polygon class="cls-1" points="1009.45 132.84 1204.08 2.39 954.77 89.05 1009.45 132.84"/>
          <path class="cls-2" d="M1010.63,134.85c1.74-1.17,3.48-2.33,5.22-3.5,4.73-3.17,9.47-6.35,14.2-9.52,6.97-4.67,13.95-9.35,20.92-14.02,8.5-5.7,17-11.4,25.51-17.1,9.35-6.26,18.69-12.53,28.04-18.79s18.8-12.6,28.2-18.9c8.8-5.9,17.59-11.79,26.39-17.69,7.41-4.96,14.81-9.93,22.22-14.89,5.33-3.57,10.66-7.15,15.99-10.72,2.54-1.7,5.09-3.38,7.61-5.1.11-.07.22-.15.33-.22,2.07-1.39.84-5.17-1.8-4.26-2.23.78-4.46,1.55-6.69,2.33-6.05,2.1-12.09,4.2-18.14,6.31-8.94,3.11-17.87,6.21-26.81,9.32-10.94,3.8-21.88,7.6-32.82,11.41-11.9,4.14-23.81,8.27-35.71,12.41s-24.18,8.41-36.28,12.61c-11.24,3.91-22.48,7.81-33.72,11.72-9.5,3.3-19,6.6-28.5,9.91-6.85,2.38-13.7,4.76-20.55,7.14-3.23,1.12-6.47,2.22-9.69,3.37-.14.05-.28.1-.41.14-1.48.51-2.51,2.71-1.03,3.89,6.17,4.94,12.35,9.89,18.52,14.83,9.8,7.85,19.6,15.7,29.4,23.54,2.25,1.8,4.51,3.61,6.76,5.41.98.79,2.34.96,3.3,0,.81-.81.99-2.5,0-3.3-6.17-4.94-12.35-9.89-18.52-14.83-9.8-7.85-19.6-15.7-29.4-23.54-2.25-1.8-4.51-3.61-6.76-5.41l-1.03,3.89c2.23-.78,4.46-1.55,6.69-2.33,6.05-2.1,12.09-4.2,18.14-6.31,8.94-3.11,17.87-6.21,26.81-9.32,10.94-3.8,21.88-7.6,32.82-11.41,11.9-4.14,23.81-8.27,35.71-12.41s24.18-8.41,36.28-12.61c11.24-3.91,22.48-7.81,33.72-11.72,9.5-3.3,19-6.6,28.5-9.91,6.85-2.38,13.7-4.76,20.55-7.14,3.22-1.12,6.51-2.12,9.69-3.37.14-.05.28-.1.41-.14l-1.8-4.26c-1.74,1.17-3.48,2.33-5.22,3.5-4.73,3.17-9.47,6.35-14.2,9.52-6.97,4.67-13.95,9.35-20.92,14.02-8.5,5.7-17,11.4-25.51,17.1-9.35,6.26-18.69,12.53-28.04,18.79s-18.8,12.6-28.2,18.9c-8.8,5.9-17.59,11.79-26.39,17.69-7.41,4.96-14.81,9.93-22.22,14.89-5.33,3.57-10.66,7.15-15.99,10.72-2.54,1.7-5.09,3.38-7.61,5.1-.11.07-.22.15-.33.22-2.48,1.66-.15,5.7,2.35,4.02Z"/>
        </g>
        <g>
          <polygon class="cls-1" points="1011.31 209.13 1026.67 149.29 1204.8 2.48 1010.17 132.93 1011.31 209.13"/>
          <path class="cls-2" d="M1013.56,209.75c1.73-6.76,3.47-13.52,5.2-20.28l8.26-32.17c.63-2.46,1.27-4.93,1.9-7.39l-.6,1.03c1.59-1.31,3.19-2.63,4.78-3.94,4.32-3.56,8.63-7.11,12.95-10.67,6.41-5.28,12.81-10.56,19.22-15.84,7.79-6.42,15.57-12.83,23.36-19.25,8.53-7.03,17.05-14.05,25.58-21.08s17.21-14.19,25.82-21.28c8.06-6.64,16.11-13.28,24.17-19.92,6.8-5.61,13.61-11.22,20.41-16.82,4.87-4.02,9.75-8.03,14.62-12.05,2.3-1.9,4.69-3.73,6.93-5.71.1-.09.2-.16.3-.25,2.03-1.68-.63-5.13-2.82-3.66-3.01,2.02-6.02,4.04-9.03,6.05-7.84,5.25-15.67,10.5-23.51,15.76-10.97,7.35-21.94,14.71-32.91,22.06-12.49,8.37-24.98,16.74-37.46,25.11s-24.34,16.32-36.51,24.47c-10.23,6.86-20.46,13.72-30.7,20.57-6.63,4.44-13.26,8.88-19.88,13.33l-4.2,2.81c-.83.56-1.51,1.16-1.57,2.31-.04.8.02,1.62.04,2.42.18,12.06.36,24.11.54,36.17l.53,35.62c0,.66.02,1.32.03,1.97.04,3,4.71,3,4.66,0-.13-8.61-.26-17.21-.39-25.82-.2-13.66-.41-27.32-.61-40.98-.05-3.13-.09-6.26-.14-9.4l-1.15,2.01c1.74-1.17,3.48-2.33,5.22-3.5,4.73-3.17,9.47-6.35,14.2-9.52,6.97-4.67,13.95-9.35,20.92-14.02,8.5-5.7,17-11.4,25.51-17.1,9.35-6.26,18.69-12.53,28.04-18.79s18.8-12.6,28.2-18.9c8.8-5.9,17.59-11.79,26.39-17.69,7.41-4.96,14.81-9.93,22.22-14.89,5.33-3.57,10.66-7.15,15.99-10.72,2.53-1.69,5.16-3.29,7.61-5.1.1-.08.22-.15.33-.22l-2.82-3.66c-2.52,2.08-5.04,4.15-7.56,6.23-6.63,5.46-13.25,10.92-19.88,16.38-9.38,7.73-18.76,15.46-28.14,23.19-10.81,8.91-21.62,17.82-32.43,26.73s-21.59,17.79-32.38,26.69c-9.54,7.87-19.09,15.73-28.63,23.6-6.85,5.65-13.7,11.3-20.56,16.94-2,1.65-4,3.3-6,4.95-.82.68-1.75,1.32-2.51,2.07-.59.59-.71,1.34-.91,2.1l-1.24,4.85c-1.49,5.81-2.98,11.62-4.47,17.43-2.94,11.46-5.89,22.93-8.83,34.39-.18.71-.36,1.42-.55,2.13-.75,2.91,3.75,4.15,4.49,1.24Z"/>
        </g>
        <g>
          <polygon class="cls-1" points="1051.18 168.57 1011.31 209.13 1026.67 149.29 1051.18 168.57"/>
          <path class="cls-2" d="M1049.54,166.93c-4.49,4.57-8.99,9.14-13.48,13.71-7.16,7.28-14.32,14.56-21.48,21.84-1.64,1.67-3.27,3.33-4.91,5l3.89,2.27c1.73-6.76,3.47-13.52,5.2-20.28,2.75-10.72,5.5-21.44,8.26-32.17.63-2.46,1.27-4.93,1.9-7.39l-3.89,1.03c7.15,5.63,14.3,11.25,21.46,16.88,1.02.8,2.04,1.6,3.06,2.4s2.33.96,3.3,0c.81-.81.99-2.51,0-3.3-7.15-5.63-14.3-11.25-21.46-16.88-1.02-.8-2.04-1.6-3.06-2.4-1.31-1.03-3.42-.83-3.89,1.03-1.73,6.76-3.47,13.52-5.2,20.28-2.75,10.72-5.5,21.44-8.26,32.17-.63,2.46-1.27,4.93-1.9,7.39-.57,2.22,2.24,3.95,3.89,2.27,4.49-4.57,8.99-9.14,13.48-13.71,7.16-7.28,14.32-14.56,21.48-21.84,1.64-1.67,3.27-3.33,4.91-5,2.1-2.14-1.19-5.44-3.3-3.3Z"/>
        </g>
        <g>
          <polygon class="cls-1" points="1094.55 201.91 1026.67 149.29 1204.8 2.48 1094.55 201.91"/>
          <path class="cls-2" d="M1096.2,200.27c-2.24-1.74-4.48-3.47-6.72-5.21-5.42-4.2-10.83-8.4-16.25-12.6-6.52-5.06-13.05-10.11-19.57-15.17-5.64-4.38-11.29-8.75-16.93-13.13-1.87-1.45-3.75-2.9-5.62-4.36-.87-.68-1.73-1.49-2.67-2.07-.04-.03-.08-.06-.12-.09v3.3c1.59-1.31,3.19-2.63,4.78-3.94,4.32-3.56,8.63-7.11,12.95-10.67,6.41-5.28,12.81-10.56,19.22-15.84,7.79-6.42,15.57-12.83,23.36-19.25,8.53-7.03,17.05-14.05,25.58-21.08s17.21-14.19,25.82-21.28c8.06-6.64,16.11-13.28,24.17-19.92,6.8-5.61,13.61-11.22,20.41-16.82,4.87-4.02,9.75-8.03,14.62-12.05,2.3-1.9,4.72-3.71,6.93-5.71.1-.09.2-.16.3-.25l-3.66-2.82c-.99,1.79-1.98,3.58-2.97,5.37-2.66,4.82-5.33,9.64-7.99,14.46-3.97,7.18-7.94,14.36-11.91,21.54-4.81,8.69-9.61,17.39-14.42,26.08-5.3,9.59-10.61,19.18-15.91,28.78s-10.67,19.29-16,28.94c-4.97,8.99-9.94,17.99-14.92,26.98-4.2,7.6-8.4,15.2-12.6,22.8-3.02,5.46-6.04,10.93-9.06,16.39-1.43,2.59-2.9,5.15-4.29,7.76-.06.11-.12.22-.18.33-1.45,2.63,2.57,4.98,4.02,2.35.99-1.79,1.98-3.58,2.97-5.37,2.66-4.82,5.33-9.64,7.99-14.46,3.97-7.18,7.94-14.36,11.91-21.54,4.81-8.69,9.61-17.39,14.42-26.08,5.3-9.59,10.61-19.18,15.91-28.78s10.67-19.29,16-28.94c4.97-8.99,9.94-17.99,14.92-26.98,4.2-7.6,8.4-15.2,12.6-22.8,3.02-5.46,6.04-10.93,9.06-16.39,1.43-2.59,2.9-5.15,4.29-7.76.06-.11.12-.22.18-.33,1.34-2.42-1.67-4.46-3.66-2.82-1.59,1.31-3.19,2.63-4.78,3.94-4.32,3.56-8.63,7.11-12.95,10.67-6.41,5.28-12.81,10.56-19.22,15.84-7.79,6.42-15.57,12.83-23.36,19.25-8.53,7.03-17.05,14.05-25.58,21.08-8.61,7.09-17.21,14.19-25.82,21.28-8.06,6.64-16.11,13.28-24.17,19.92-6.8,5.61-13.61,11.22-20.41,16.82-4.87,4.02-9.75,8.03-14.62,12.05-2.3,1.9-4.69,3.73-6.93,5.71-.1.09-.2.16-.3.25-.89.73-.93,2.57,0,3.3,2.24,1.74,4.48,3.47,6.72,5.21,5.42,4.2,10.83,8.4,16.25,12.6,6.52,5.06,13.05,10.11,19.57,15.17,5.64,4.38,11.29,8.75,16.93,13.13,2.76,2.14,5.53,4.29,8.29,6.43.04.03.08.06.12.09.99.77,2.33.97,3.3,0,.8-.8,1-2.52,0-3.3Z"/>
        </g>
      </g>
      <path class="cls-1" d="M149.92,329.45v86.34c-3.77,3.28-8.8,6.02-15.11,8.23-6.3,2.21-13.96,3.32-22.97,3.32s-16.66-2.01-22.97-6.02c-7.12-4.34-10.69-10.48-10.69-18.42v-79.1h-28.62c-5.9-8.43-8.84-17.64-8.84-27.64,0-6.8,1.08-12.71,3.25-17.75,2.17-5.04,4.85-8.94,8.04-11.73h127c2.37,3.68,4.34,8.15,5.9,13.39,1.56,5.24,2.33,10.44,2.33,15.6,0,9.66-2.13,16.77-6.39,21.31s-9.99,6.82-17.2,6.82h-35.99c-.25.57-.37,1.19-.37,1.84,0,1.47.86,2.46,2.58,2.95,1.8.57,5.65.86,11.55.86h8.47Z"/>
      <path class="cls-1" d="M343.39,377.98c0,4.02.45,7.25,1.34,9.71.89,2.46,2.46,4.38,4.69,5.78.06.28.08.81.08,1.59v1.51c0,7.7-2.22,13.68-6.65,17.95-4.44,4.27-10.16,6.4-17.16,6.4s-12.68-1.98-17.03-5.94c-5.08-4.52-7.62-11.38-7.62-20.59,0-3.9.18-7.35.54-10.34.36-2.98.61-5.12.75-6.4.14-1.28.29-2.48.46-3.6.17-1.12.25-2.76.25-4.94s-.29-3.74-.88-4.69c-.59-.95-1.39-1.42-2.43-1.42s-1.94.22-2.72.67l1.09,13.64c-1,5.64-1.51,11.61-1.51,17.91s1.42,12.05,4.27,17.24c-5.47,5.64-13.14,8.45-23.02,8.45-5.64,0-10.52-1.48-14.65-4.44-4.8-3.35-7.2-7.78-7.2-13.31v-97.68c2.68-1.56,5.9-2.85,9.67-3.85s7.57-1.51,11.43-1.51c6.42,0,11.72,1.26,15.9,3.77,4.74,2.96,7.11,7.2,7.11,12.72v7.95c-4.85.28-9.51,1.67-13.98,4.18-3.85,2.23-5.78,4.27-5.78,6.11,0,.61.22,1.16.67,1.63.45.47.98.77,1.59.88,2.34-2.73,5.65-5.02,9.92-6.86s9.33-2.76,15.19-2.76,11.13.89,15.82,2.68c5.91,2.23,10.57,5.64,13.98,10.21,4.07,5.58,6.11,12.58,6.11,21.01l-.25,16.32Z"/>
      <path class="cls-1" d="M400.8,422c-15.46,0-27.65-4.3-36.58-12.89-9.15-8.65-13.73-20.49-13.73-35.53s4.72-26.96,14.15-35.78c8.7-8.2,19.73-12.3,33.06-12.3s24.04,3.67,32.1,11.01c8.06,7.34,12.09,16.36,12.09,27.08,0,9.54-3.32,16.74-9.96,21.59-6.14,4.58-14.51,6.86-25.11,6.86-7.92,0-14.62-1.64-20.09-4.94-.45.33-.67.95-.67,1.84,0,1.67,2.2,3.21,6.61,4.6,4.41,1.51,9.42,2.26,15.02,2.26s10.71-.71,15.32-2.13c4.6-1.42,8.3-3.11,11.09-5.06,1.34,1.17,2.41,3.34,3.22,6.49.81,3.15,1.21,6.03,1.21,8.62s-.25,4.9-.75,6.91c-4.35,3.68-8.82,6.31-13.39,7.87-6.47,2.34-14.34,3.52-23.6,3.52ZM394.53,321.31c-4.24.11-8.89.99-13.94,2.64-5.05,1.65-9.36,3.81-12.93,6.49l8.6-26.19c1.57-4.77,5.5-8.47,10.42-9.48.03,0,.07-.01.1-.02,3.43-.7,6.63-1.05,9.58-1.05,3.57,0,6.76.22,9.58.67,5.08.81,9.24,4.47,10.95,9.33l8.85,25.16c-3.12-2.23-7.23-4.07-12.3-5.52-4.91-1.28-9.76-1.98-14.56-2.09-.73-2.23-1.42-4.57-2.09-7.03-1.17,0-1.98.2-2.43.59-.45.39-.67,1.05-.67,1.97s.28,2.44.84,4.56ZM399.72,365.34c2.79,0,4.18-1.06,4.18-3.18,0-2.01-1.48-3.01-4.44-3.01s-4.66,1.59-5.11,4.77c1.56.95,3.35,1.42,5.36,1.42Z"/>
      <path class="cls-1" d="M540.58,422.09c-9.93,0-19.04-2.05-27.33-6.15s-14.97-10.38-20.05-18.83-7.62-19.01-7.62-31.68c0-18.36,5.52-32.7,16.57-43.02,9.82-9.09,22.46-13.64,37.92-13.64,16.8,0,30.09,5.2,39.88,15.61,9.79,10.41,14.69,24.09,14.69,41.05,0,18.86-5.25,33.26-15.74,43.19-9.54,8.98-22.32,13.48-38.33,13.48ZM543.93,361.66c0-5.58-.25-9.42-.75-11.51s-1.42-3.14-2.76-3.14c-.84,0-1.59.28-2.26.84.11,1,.28,2.34.5,4.02s.33,5.25.33,10.71v5.44c0,3.8-.08,6.56-.25,8.29-.17,1.73-.31,3.21-.42,4.44l-.17,2.01c.67.56,1.42.84,2.26.84,1.34,0,2.26-1.05,2.76-3.14s.75-5.93.75-11.51v-7.28Z"/>
      <path class="cls-1" d="M780.72,422c-15.46,0-27.65-4.3-36.58-12.89-9.15-8.65-13.73-20.49-13.73-35.53s4.72-26.96,14.15-35.78c8.7-8.2,19.73-12.3,33.06-12.3s24.04,3.67,32.1,11.01c8.06,7.34,12.09,16.36,12.09,27.08,0,9.54-3.32,16.74-9.96,21.59-6.14,4.58-14.51,6.86-25.11,6.86-7.92,0-14.62-1.64-20.09-4.94-.45.33-.67.95-.67,1.84,0,1.67,2.2,3.21,6.61,4.6,4.41,1.51,9.42,2.26,15.02,2.26s10.71-.71,15.32-2.13c4.6-1.42,8.3-3.11,11.09-5.06,1.34,1.17,2.41,3.34,3.22,6.49.81,3.15,1.21,6.03,1.21,8.62s-.25,4.9-.75,6.91c-4.35,3.68-8.82,6.31-13.39,7.87-6.47,2.34-14.34,3.52-23.6,3.52ZM779.63,365.34c2.79,0,4.18-1.06,4.18-3.18,0-2.01-1.48-3.01-4.44-3.01s-4.66,1.59-5.11,4.77c1.56.95,3.35,1.42,5.36,1.42Z"/>
      <path class="cls-1" d="M915.56,377.98c0,4.02.45,7.25,1.34,9.71.89,2.46,2.46,4.38,4.69,5.78.06.28.08.81.08,1.59v1.51c0,7.7-2.22,13.68-6.65,17.95-4.44,4.27-10.16,6.4-17.16,6.4s-12.68-1.98-17.03-5.94c-5.08-4.52-7.62-11.38-7.62-20.59,0-3.9.18-7.35.54-10.34.36-2.98.61-5.12.75-6.4.14-1.28.29-2.48.46-3.6.17-1.12.25-2.76.25-4.94s-.29-3.74-.88-4.69c-.59-.95-1.39-1.42-2.43-1.42s-1.94.22-2.72.67l1.09,13.64c-1,5.64-1.51,11.61-1.51,17.91s1.42,12.05,4.27,17.24c-5.47,5.64-13.14,8.45-23.02,8.45-5.64,0-10.52-1.48-14.65-4.44-4.8-3.35-7.2-7.78-7.2-13.31v-40.51c-3.29-4.63-4.94-10.34-4.94-17.12s1.65-12.65,4.94-17.62h14.9c3.96,0,7.34,1.48,10.13,4.44-2.46,2.29-3.68,4.18-3.68,5.69,0,1.73.98,2.59,2.93,2.59,2.46-4.24,6.21-7.76,11.26-10.55,5.05-2.79,10.78-4.18,17.2-4.18,9.65,0,17.49,2.37,23.52,7.11,7.59,5.97,11.38,15.23,11.38,27.79l-.25,17.16Z"/>
      <path class="cls-1" d="M930.04,366.51h5.19c2.79,0,4.18-.92,4.18-2.76,0-.22-.06-.56-.17-1h-18.75c-1.23-3.9-1.84-8.27-1.84-13.1s.36-8.75,1.09-11.76c3.18-2.01,7.56-5.08,13.14-9.21,1.56-3.79,3.6-9.82,6.11-18.08.33-1.12.73-2.2,1.17-3.26,4.35-1.12,9.32-1.67,14.9-1.67s11.08.59,16.49,1.76v20.51h14.48c3.24,4.91,4.85,10.69,4.85,17.33,0,3.01-.42,6.11-1.26,9.29s-2.04,5.89-3.6,8.12h-11.97v12.64c0,7.14,2.99,10.71,8.96,10.71h3.6c1.17,4.24,1.76,7.92,1.76,11.05,0,7.7-2.41,13.6-7.24,17.7s-11.83,6.15-21.01,6.15-16.49-2.55-21.93-7.66-8.16-12.62-8.16-22.56v-24.19Z"/>
      <path class="cls-1" d="M1077.52,377.98c0,4.02.45,7.25,1.34,9.71.89,2.46,2.46,4.38,4.69,5.78.06.28.08.81.08,1.59v1.51c0,7.92-2.4,14.09-7.2,18.5-4.24,3.91-9.49,5.86-15.74,5.86-4.24,0-8.12-1-11.63-3.01-3.52-2.01-6.03-4.91-7.53-8.7-1.9,0-2.85.92-2.85,2.76,0,1.56.98,3.32,2.93,5.27-3.63,2.45-9.1,3.68-16.41,3.68-10.32,0-18.57-2.8-24.73-8.41-6.17-5.61-9.25-13.45-9.25-23.52s3.26-17.87,9.79-23.39c5.97-4.97,13.7-7.45,23.18-7.45,3.24,0,6.36.22,9.37.67,2.01.39,3.1.61,3.26.67.17-.56.25-1.03.25-1.42,0-1.45-1.23-2.43-3.68-2.93s-5.66-.75-9.63-.75c-8.43,0-15.62,1.7-21.59,5.11-2.73-4.63-4.1-10.49-4.1-17.58,0-4.02.5-7,1.51-8.96,4.02-1.84,9.12-3.47,15.32-4.9s12.72-2.13,19.59-2.13c14.17,0,24.89,3.1,32.14,9.29s10.88,14.98,10.88,26.37v16.41ZM1034.08,382.08c-2.34,0-3.52,1.06-3.52,3.18,0,2.01,1.37,3.01,4.1,3.01,1.9,0,3.29-.46,4.18-1.38s1.34-2.52,1.34-4.81h-6.11Z"/>
      <path class="cls-2" d="M4.37,331.88c3.75,4.02,8.1,7.57,12.38,11.01,13.17,10.58,27.18,19.98,41.86,28.31,53.35,30.28,113.38,48.48,173.56,59.02,46.79,8.2,94.29,12.08,141.77,12.54,48.51.47,97.13-1.88,145.14-9.02,36.75-5.46,73.04-14.25,107.69-27.78,32.14-12.55,62.61-28.61,91.37-47.66,17.77-11.77,34.63-24.81,52.27-36.75s37.21-23.95,56.98-33.85c3.99-2,8.01-3.93,12.07-5.78,2.17-.99,4.34-1.96,6.53-2.91.98-.43,1.96-.85,2.95-1.27-3.41,1.44,1.63-.65,2.23-.89,8.07-3.26,16.26-6.23,24.53-8.94,17.77-5.83,35.89-10.47,54.07-14.83,9.67-2.32,19.37-4.56,29.06-6.82,8.03-1.87,12.78-11.05,10.66-18.77-2.26-8.23-10.72-12.54-18.77-10.66-36.34,8.47-72.96,16.58-107.66,30.59-41.9,16.92-79.6,41.04-116,67.59-27,19.69-55.4,37.51-85.67,51.73-3.69,1.73-7.4,3.41-11.14,5.04-.89.39-1.79.77-2.69,1.16-3.66,1.58,3.02-1.22-.68.28-2.19.89-4.37,1.79-6.56,2.66-7.82,3.09-15.73,5.95-23.72,8.58-17.35,5.72-35.06,10.35-52.94,14.06-9.9,2.06-19.86,3.83-29.86,5.36-2.36.36-4.72.71-7.09,1.04-.96.14-1.91.27-2.87.4,3.35-.46-1.45.19-1.73.22-5.44.7-10.88,1.33-16.33,1.9-23.28,2.44-46.67,3.79-70.06,4.41-48.86,1.3-97.84-.34-146.34-6.6-.21-.03-5.13-.69-1.9-.25-.98-.14-1.96-.27-2.95-.41-2.43-.34-4.85-.7-7.28-1.06-5.43-.82-10.86-1.7-16.27-2.64-9.6-1.67-19.17-3.54-28.69-5.62-17.1-3.73-34.06-8.14-50.77-13.33-14.31-4.44-28.44-9.46-42.32-15.12-1.46-.6-2.95-1.17-4.39-1.82,4.37,1.97-.39-.18-1.48-.65-3.15-1.37-6.28-2.77-9.39-4.21-5.41-2.5-10.77-5.11-16.07-7.83-15.91-8.19-31.35-17.41-45.72-28.08-1.17-.87-2.31-1.78-3.49-2.64,5.26,3.86.66.5-.62-.54-1.85-1.49-3.68-3.01-5.47-4.58-2.03-1.77-3.96-3.64-5.92-5.48-.24-.23-.47-.47-.7-.72-5.62-6.03-15.9-5.68-21.58,0-6.01,6.01-5.64,15.53,0,21.58h0Z"/>
      <path class="cls-1" d="M624.53,420.5c-6.64,0-11.94-1.2-15.9-3.6-4.41-2.51-6.61-6.22-6.61-11.13v-43.11c-3.29-4.63-4.94-10.34-4.94-17.12s1.65-12.65,4.94-17.62h12.81c6.58,0,11.3,2.12,14.15,6.36-1.39,1.56-2.62,3.54-3.68,5.94-1.06,2.4-1.59,4.12-1.59,5.15s.27,1.8.8,2.3,1.3.75,2.3.75c1.95-7.76,5.66-13.45,11.13-17.07,4.52-3.07,10.1-4.6,16.74-4.6,8.26,0,14.73,1.76,19.42,5.27,1.67,4.47,2.51,9.92,2.51,16.36s-1.28,12.29-3.85,17.54c-1.9,1-4.52,1.86-7.87,2.55-3.35.7-6.72,1.05-10.13,1.05s-6.46-.24-9.17-.71c-2.71-.47-4.67-.91-5.9-1.3-.45.45-.67,1.09-.67,1.93s.54,1.46,1.63,1.88,2.92.88,5.48,1.38v42.02c-6.08,3.85-13.28,5.78-21.59,5.78Z"/>
      <path class="cls-1" d="M211.89,422c-14.51,0-26.07-4.48-34.69-13.43s-12.93-20.97-12.93-36.03,4.88-26.98,14.65-35.74c8.7-7.81,19.59-11.72,32.64-11.72,11.61,0,21.23,2.86,28.88,8.58,7.64,5.72,11.47,13.49,11.47,23.31,0,6.81-2.11,12.35-6.32,16.61s-9.75,6.4-16.61,6.4c-5.58,0-10.23-1.49-13.94-4.48-3.71-2.98-5.9-6.88-6.57-11.68-2.46,0-3.68.89-3.68,2.68,0,4.07,2.01,7.81,6.03,11.22,4.63,4.02,10.39,6.03,17.28,6.03s12.6-1.48,17.12-4.44c2.79,4.3,4.18,9.51,4.18,15.65,0,7.14-3.07,13.25-9.21,18.33-7.03,5.8-16.46,8.7-28.29,8.7Z"/>
      <path class="cls-1" d="M723.3,344.08v33.15c0,8.32,2.01,13.73,6.03,16.24.06.28.08.81.08,1.59v1.51c0,8.2-2.23,14.37-6.7,18.5-4.13,3.91-9.64,5.86-16.53,5.86s-12.57-1.95-17.03-5.86c-5.64-4.97-8.45-12.22-8.45-21.76v-54.4c1-.72,2.09-1.31,3.26-1.76,1.17-.45,2.4-1,3.68-1.67-2.4-1.23-4.58-3.36-6.53-6.4-1.95-3.04-2.93-6.6-2.93-10.67,0-7.03,2.32-12.78,6.95-17.24,4.63-4.46,10.31-6.7,17.03-6.7s12.36,2.27,16.91,6.82c4.55,4.55,6.82,10.25,6.82,17.12,0,5.52-1.73,10.37-5.19,14.52-3.46,4.16-7.67,6.77-12.64,7.83,0,2.12.81,3.18,2.43,3.18,2.85,0,5.75-1.12,8.7-3.35,2.23,1.73,3.6,2.9,4.1,3.52Z"/>
    </g>
  </g>
</svg>